<svg version="1.1" xmlns="http://www.w3.org/2000/svg" style="display: block;" viewBox="300 200 1450 1400" width="512" height="512" preserveAspectRatio="xMidYMid meet">

<!-- Outer dark ring -->
<path fill="#021526" d="M 1006.57 312.175 C 1332.29 302.46 1604.27 558.507 1614.21 884.216 C 1624.16 1209.93 1368.3 1482.09 1042.6 1492.26 C 716.573 1502.44 444.081 1246.28 434.128 920.244 C 424.174 594.21 680.531 321.899 1006.57 312.175 z"/>

<!-- Accent ring — teal -->
<path fill="#ffffff" d="M 1003.11 356.523 C 1304.15 344.867 1557.66 579.417 1569.39 880.453 C 1581.13 1181.49 1346.64 1435.06 1045.61 1446.87 C 744.467 1458.68 490.786 1224.09 479.049 922.948 C 467.312 621.803 701.966 368.182 1003.11 356.523 z"/>

<!-- Main vortex body -->
<path fill="#0a3f54" d="M 1010.59 401.488 C 1031.27 400.817 1051.98 401.431 1072.59 403.328 C 1206.51 416.088 1329.93 481.345 1415.88 584.837 C 1500.33 685.957 1541.25 816.432 1529.67 947.67 C 1516.53 1080.07 1451.11 1201.75 1347.91 1285.72 C 1261.13 1357.27 1133.63 1409.44 1019.45 1399.29 C 959.129 1393.92 893.541 1365.68 855.25 1317.77 C 835.095 1292.55 823.089 1258.9 827.29 1226 C 840.759 1120.47 983.95 1104.72 1063.63 1073.25 C 1094.27 1062.15 1121.23 1048.44 1147.3 1028.55 C 1224.91 969.311 1239.06 856.107 1178.06 779.734 C 1150.94 745.778 1107.62 719.513 1063.5 715.3 L 1062.23 715.189 C 1043.85 712.517 1022.89 713.843 1004.83 717.782 C 962.838 726.546 926.206 751.987 903.331 788.276 C 873.616 834.538 870.839 891.444 897.04 940.108 C 905.829 956.431 922.295 977.5 938.066 987.525 C 906.405 951.499 890.866 911.376 903.299 863.166 C 911.733 831.13 932.662 803.813 961.399 787.332 C 990.552 770.38 1025.26 765.742 1057.84 774.445 C 1089.87 783.176 1117.12 804.287 1133.57 833.126 C 1150.11 862.448 1154 893.844 1145.26 926.396 C 1125.66 999.483 1045.04 1020.53 979.682 1035.81 C 955.359 1041.26 931.125 1047.1 906.989 1053.33 C 801.582 1081.25 688.425 1131.01 655.907 1246.06 C 646.203 1234.85 636.405 1223.68 627.036 1212.18 C 560.312 1130.31 522.769 1030.06 517.735 924.662 C 510.906 792.799 557.774 663.793 647.651 567.063 C 742.333 463.205 871.124 407.761 1010.59 401.488 z"/>

<!-- Vortex spiral arms -->
<path fill="#06b6d4" d="M 1003.58 479.423 C 1010.93 478.607 1020.96 478.814 1028.45 478.875 C 1185.16 480.15 1326.36 567.17 1399.66 705.375 C 1451.27 803.979 1461.63 919.032 1428.49 1025.27 C 1394.38 1133.25 1318.55 1223.13 1217.85 1274.91 C 1119.34 1326.98 1003.98 1337.06 897.93 1302.88 C 883.696 1298.38 876.441 1294.23 869.665 1280.03 C 856.495 1252.42 857.033 1232.74 866.225 1204.83 C 914.908 1228.36 956.987 1241.22 1011.56 1243.42 C 1102.06 1246.55 1190.15 1213.92 1256.77 1152.58 C 1324.99 1089.94 1364.9 1002.33 1367.39 909.75 C 1370.98 848.297 1350.18 776.437 1318.57 723.994 C 1271.11 646.245 1194.97 590.28 1106.6 568.18 C 1018.21 546.732 924.936 560.884 846.887 607.583 C 768.39 654.233 712.011 730.554 690.494 819.296 C 666.441 917.184 685.78 1004.34 737.079 1089.07 C 710.667 1107.81 699.403 1117.8 676.649 1140.95 C 631.298 1073.63 607.412 1010.54 601.628 928.853 C 594.155 817.842 630.97 708.391 704.013 624.463 C 781.934 535.076 886.118 487.536 1003.58 479.423 z"/>

<!-- Center eye -->
<path fill="#67e8f9" d="M 1012.79 814.291 C 1057.78 807.873 1099.44 839.221 1105.72 884.234 C 1112.01 929.247 1080.54 970.807 1035.51 976.963 C 990.663 983.095 949.31 951.783 943.049 906.954 C 936.788 862.125 967.979 820.682 1012.79 814.291 z"/>

</svg>
