<svg xmlns="http://www.w3.org/2000/svg" viewBox="0 0 1280 640" width="1280" height="640">

  <!-- Background -->
  <rect width="1280" height="640" fill="#0b2545"/>

  <!-- Subtle geometric accents -->
  <circle cx="640" cy="320" r="420" fill="#0e2f52" opacity="0.4"/>
  <circle cx="640" cy="320" r="300" fill="#112d4a" opacity="0.25"/>

  <!-- Diagonal accent strip -->
  <polygon points="0,640 0,560 1280,480 1280,640" fill="#091e38"/>

  <!-- Logo — centered, upper area -->
  <g transform="translate(465,10) scale(0.19)">
    <path fill="#0b2545" d="M 1001.32 311.985 C 1327.05 299.425 1601.34 553.177 1614.12 878.894 C 1626.9 1204.61 1373.33 1479.07 1047.62 1492.07 C 721.605 1505.08 446.826 1251.22 434.036 925.192 C 421.245 599.166 675.29 324.558 1001.32 311.985 z"/>
    <path fill="#ffffff" d="M 1003.61 356.638 C 1304.83 345.357 1558.1 580.525 1569.15 881.753 C 1580.2 1182.98 1344.84 1436.07 1043.6 1446.89 C 742.69 1457.69 489.935 1222.64 478.898 921.742 C 467.861 620.842 702.718 367.906 1003.61 356.638 z"/>
    <path fill="#0b2545" d="M 935.911 409.614 C 945.507 406.563 966.369 404.887 977.342 403.836 C 1043.81 397.162 1110.93 404.164 1174.59 424.412 C 1189.43 429 1213.33 437.459 1227.15 444.413 C 1307.94 475.829 1393.5 549.469 1442.73 620.309 C 1517.49 726.93 1546.69 858.939 1523.88 987.142 C 1499.61 1119.21 1423.58 1236.11 1312.7 1311.85 C 1224.16 1372.8 1102.23 1414.23 993.794 1396.1 C 912.592 1382.52 809.135 1311.56 829.259 1216.69 C 863.123 1057.04 1144.81 1080.78 1174.08 928.761 C 1180.48 894.868 1173.23 859.818 1153.89 831.251 C 1132.45 799.944 1101.01 782.291 1064.18 775.579 C 1097.74 789.1 1122.43 806.512 1138.63 840.405 C 1153 870.136 1154.87 904.385 1143.82 935.505 C 1112.91 1019.91 996.871 1027.81 921.763 1047.89 C 801.693 1079.99 701.539 1118.34 655.174 1244.66 C 583.087 1162.16 536.118 1079.03 520.986 968.554 C 503.317 838.918 538.036 707.586 617.46 603.618 C 678.366 524.189 760.988 464.114 855.326 430.665 C 878.768 422.217 911.124 412.935 935.911 409.614 z"/>
    <path fill="#13678a" d="M 935.911 409.614 C 945.507 406.563 966.369 404.887 977.342 403.836 C 1043.81 397.162 1110.93 404.164 1174.59 424.412 C 1189.43 429 1213.33 437.459 1227.15 444.413 C 1225.26 445.213 1224.2 445.69 1222.1 444.992 C 1195.42 436.105 1170.55 430.148 1142.54 426.72 C 1100.89 421.404 1058.67 422.382 1017.31 429.619 C 915.832 447.843 825.506 505.031 765.631 588.963 C 713.913 661.287 693.291 751.301 708.366 838.926 C 720.015 904.219 753.047 963.783 802.263 1008.24 C 813.684 1018.37 824.753 1025.98 837.222 1034.63 C 812.282 1045.23 795.797 1049.92 771.237 1063.26 C 735.093 1035.79 702.495 994.561 680.903 954.656 C 633.515 868.493 623.22 766.758 652.385 672.848 C 683.74 568.219 762.451 483.337 860.422 437.136 C 877.281 429.555 895.128 424.026 912.464 417.644 C 919.61 415.013 929.574 413.396 935.911 409.614 z"/>
    <path fill="#45b7d1" d="M 1057.13 492.433 C 1070.81 492.125 1084.5 492.543 1098.14 493.685 C 1189.78 502.008 1274.25 546.727 1332.64 617.833 C 1390.98 687.698 1418.86 783.051 1410.55 873.377 C 1401.19 968.893 1354.47 1056.84 1280.57 1118.07 C 1217.45 1170.51 1139.73 1202.26 1057.95 1209.01 C 1046.3 1209.92 1025.96 1211.31 1014.69 1210.23 C 1019.54 1209.68 1024.36 1208.91 1029.14 1207.91 C 1132.63 1186.22 1230.49 1127.51 1288.87 1038 C 1301.34 1017.44 1311.9 997.968 1320.65 975.526 C 1350.58 898.151 1348.87 812.108 1315.88 735.988 C 1284.02 663.034 1224.28 605.868 1150 577.245 C 1007.29 522.423 840.937 594.334 770.654 726.846 C 762.641 741.954 756.544 756.176 750.414 772.074 C 756.932 707.507 784.18 646.785 828.081 598.992 C 888.162 532.443 968.09 496.685 1057.13 492.433 z"/>
    <path fill="#13678a" d="M 1067.78 676.434 C 1113.87 673.892 1161.99 689.362 1199.3 716.245 C 1245.92 749.428 1277.22 799.977 1286.14 856.499 C 1294.06 904.577 1285.67 953.921 1262.31 996.683 C 1219.02 1077.39 1136.88 1121.39 1055.44 1155.7 C 998.457 1179.71 907.161 1216.99 921.158 1294.72 C 926.859 1326.38 946.222 1348.51 971.784 1366.71 C 915.752 1345.94 856.744 1292.35 868.016 1226.36 C 873.953 1191.6 897.489 1168.79 925.182 1149.18 C 952.465 1131.71 981.169 1116.56 1010.99 1103.9 C 1060.54 1082.5 1113.36 1066.05 1154.98 1029.29 C 1191.14 997.357 1212.49 957.392 1214.88 908.772 C 1217.28 867.137 1202.92 826.272 1175 795.29 C 1115.14 729.58 1010.33 722.799 944.93 783.618 C 909.803 815.655 892.347 862.707 898.077 909.902 C 898.871 916.331 905.632 940.308 905.555 942.521 C 902.351 939.806 900.535 934.774 898.33 931.173 C 886.159 911.289 880.254 889.233 878.8 866.055 C 876.392 820.931 892.141 776.72 922.535 743.281 C 959.49 701.985 1012.95 679.494 1067.78 676.434 z"/>
    <path fill="#13678a" d="M 1020.44 813.21 C 1065.48 811.258 1103.64 846.043 1105.86 891.072 C 1108.08 936.101 1073.52 974.472 1028.51 976.959 C 983.113 979.468 944.347 944.554 942.109 899.145 C 939.87 853.736 975.014 815.179 1020.44 813.21 z"/>
    <path fill="#ffffff" d="M 1015.6 859.635 C 1028.42 856.558 1041.9 860.633 1050.87 870.296 C 1059.84 879.958 1062.9 893.707 1058.88 906.264 C 1054.86 918.82 1044.38 928.233 1031.47 930.888 C 1011.95 934.901 992.818 922.519 988.486 903.068 C 984.153 883.617 996.22 864.285 1015.6 859.635 z"/>
  </g>

  <!-- Title -->
  <text x="640" y="420" text-anchor="middle" font-family="'Inter', 'SF Pro Display', 'Segoe UI', system-ui, sans-serif" font-size="96" font-weight="700" letter-spacing="8" fill="#ffffff">Vrata</text>

  <!-- Accent line -->
  <rect x="600" y="442" width="80" height="3" rx="1.5" fill="#45b7d1"/>

  <!-- Slogan -->
  <text x="640" y="485" text-anchor="middle" font-family="'Inter', 'SF Pro Display', 'Segoe UI', system-ui, sans-serif" font-size="22" font-weight="300" letter-spacing="3.5" fill="#8ecae6" opacity="0.9">THE LAST GATEWAY YOU'LL CONFIGURE</text>

</svg>
